<svg id="Capa_1" enable-background="new 0 0 512 512" height="25" viewBox="0 0 512 512" width="25" xmlns="http://www.w3.org/2000/svg"><path d="m421 45v422c0 24.81-20.19 45-45 45h-240c-24.81 0-45-20.19-45-45v-422c0-24.81 20.19-45 45-45h240c24.81 0 45 20.19 45 45z" fill="#596c76"/><path d="m421 45v422c0 24.81-20.19 45-45 45h-120v-512h120c24.81 0 45 20.19 45 45z" fill="#465a61"/><path d="m136 30c-8.276 0-15 6.724-15 15v422c0 8.276 6.724 15 15 15h240c8.276 0 15-6.724 15-15v-422c0-8.276-6.724-15-15-15z" fill="#f2f2f2"/><path d="m376 30h-120v452h120c8.276 0 15-6.724 15-15v-422c0-8.276-6.724-15-15-15z" fill="#e7e7f2"/><path d="m301 75c0 8.29-6.71 15-15 15h-60c-8.29 0-15-6.71-15-15s6.71-15 15-15h60c8.29 0 15 6.71 15 15z" fill="#596c76"/><path d="m301 75c0 8.29-6.71 15-15 15h-30v-30h30c8.29 0 15 6.71 15 15z" fill="#465a61"/><circle cx="256" cy="437" fill="#596c76" r="15"/><path d="m271 437c0-8.284-6.716-15-15-15v30c8.284 0 15-6.716 15-15z" fill="#465a61"/></svg>