<svg height="25" width="25" viewBox="0 0 64 64"  xmlns="http://www.w3.org/2000/svg" xmlns:xlink="http://www.w3.org/1999/xlink"><linearGradient id="New_Gradient_Swatch_2" gradientUnits="userSpaceOnUse" x1="32" x2="32" y1="1.609" y2="65.267"><stop offset="0" stop-color="#fc5c7d"/><stop offset=".129" stop-color="#f35e85"/><stop offset=".343" stop-color="#d9659b"/><stop offset=".616" stop-color="#b070bf"/><stop offset=".934" stop-color="#777ff0"/><stop offset="1" stop-color="#6a82fb"/></linearGradient><linearGradient id="New_Gradient_Swatch_2-2" x1="13" x2="13" xlink:href="#New_Gradient_Swatch_2" y1="1.609" y2="65.267"/><linearGradient id="New_Gradient_Swatch_2-8" x1="25" x2="25" xlink:href="#New_Gradient_Swatch_2" y1="1.609" y2="65.267"/><linearGradient id="New_Gradient_Swatch_2-9" x1="45" x2="45" xlink:href="#New_Gradient_Swatch_2" y1="1.609" y2="65.267"/><linearGradient id="New_Gradient_Swatch_2-11" x1="21" x2="21" xlink:href="#New_Gradient_Swatch_2" y1="1.609" y2="65.267"/><linearGradient id="New_Gradient_Swatch_2-12" x1="36" x2="36" xlink:href="#New_Gradient_Swatch_2" y1="1.609" y2="65.267"/><path d="m58 7h-5a1 1 0 0 0 -1 1v32a1 1 0 0 0 1 1h5a2 2 0 0 1 0 4h-42.764l-1.789-.9a1 1 0 0 0 -.894 0l-1.789.9h-6.764v-28h6.764l1.789.895a1 1 0 0 0 .894 0l1.789-.895h34.764v-2h-35a1 1 0 0 0 -.447.105l-1.553.777-1.553-.777a1 1 0 0 0 -.447-.105h-8a1 1 0 0 0 -1 1v30a1 1 0 0 0 1 1h2v4a1 1 0 0 0 1 1h2v4a1 1 0 0 0 1 1h8a1 1 0 0 0 .447-.1l1.553-.782 1.553.777a1 1 0 0 0 .447.105h34a1 1 0 0 0 1-1v-4h2a1 1 0 0 0 1-1v-4.142a4 4 0 0 0 3-3.858v-32a4 4 0 0 0 -4-4zm-4 48h-32.764l-1.789-.9a1 1 0 0 0 -.894 0l-1.789.9h-6.764v-3h4a1 1 0 0 0 .447-.1l1.553-.782 1.553.777a1 1 0 0 0 .447.105h36zm-35.764-5-1.789-.9a1 1 0 0 0 -.894 0l-1.789.9h-6.764v-3h4a1 1 0 0 0 .447-.1l1.553-.782 1.553.777a1 1 0 0 0 .447.105h42v3zm41.764-10.463a3.97 3.97 0 0 0 -2-.537h-4v-30h4a2 2 0 0 1 2 2z" fill="url(#New_Gradient_Swatch_2)"/><g fill="url(#New_Gradient_Swatch_2-2)"><path d="m12 20h2v2h-2z"/><path d="m12 24h2v2h-2z"/><path d="m12 28h2v2h-2z"/><path d="m12 32h2v2h-2z"/><path d="m12 36h2v2h-2z"/><path d="m12 40h2v2h-2z"/></g><path d="m8 11h34v2h-34z" fill="url(#New_Gradient_Swatch_2-8)"/><path d="m44 11h2v2h-2z" fill="url(#New_Gradient_Swatch_2-9)"/><path d="m31 20v2.059a9.011 9.011 0 0 0 -7.941 7.941h-2.059v2h22v-2h-2.059a9.011 9.011 0 0 0 -7.941-7.941v-2.059zm7.92 10h-13.84a6.991 6.991 0 0 1 13.84 0z" fill="url(#New_Gradient_Swatch_2)"/><path d="m20 36h2v2h-2z" fill="url(#New_Gradient_Swatch_2-11)"/><path d="m24 36h24v2h-24z" fill="url(#New_Gradient_Swatch_2-12)"/><path d="m18 40h28v2h-28z" fill="url(#New_Gradient_Swatch_2)"/></svg>